# xmcd CD database file
#
# Track frame offsets:
#	150
#	15856
#	62459
#	80291
#	100508
#	117283
#	134796
#	155329
#	172277
#	182557
#	193529
#	209148
#	221131
#	242427
#	257278
#	270228
#	288192
#	304055
#
# Disc length: 4407 seconds
#
# Revision: 0
# Processed by: cddbd v1.5PL3 Copyright (c) Steve Scherf et al.
# Submitted via: CDex 1.51
#
DISCID=f2113512
DTITLE=Various Artist - White Boys' Blues Guitars
DYEAR=1999
DGENRE=Blues
TTITLE0=Send Form Me (Clem Clemson and Jack Bruce)
TTITLE1=You SHook Me (Mick Taylor with Max Middleton)
TTITLE2=It's a Man's World (Mountain feat. Leslie West)
TTITLE3=Watch Out (Harlie Mandel)
TTITLE4=The Same Way (Mick Abrahams)
TTITLE5=Sweet Loving Thing (Savoy Brown)
TTITLE6=If You Be My Baby (Dave Peverett with Rod Price)
TTITLE7=Judgement Day (The Pretty Things)
TTITLE8=Spoonful (Canned Heat)
TTITLE9=Snake Drive (Eric Clapton)
TTITLE10=Self Destruction Blues (Jonny Winter)
TTITLE11=Working Man's Blues (Commander Cody and His Lost Planet Airmen)
TTITLE12=Loving Cup (Peter Frampton with Keith Richards)
TTITLE13=Bright Lights, Big City (Rod Stewart)
TTITLE14=Who Do You Love (Luicy Lucy)
TTITLE15=Crossfire (Spencer Davis)
TTITLE16=Dimples (The Animals)
TTITLE17=Stormy Monday (Wolfman Jack)
EXTD=YEAR: 1999
EXTT0=
EXTT1=
EXTT2=
EXTT3=
EXTT4=
EXTT5=
EXTT6=
EXTT7=
EXTT8=
EXTT9=
EXTT10=
EXTT11=
EXTT12=
EXTT13=
EXTT14=
EXTT15=
EXTT16=
EXTT17=
PLAYORDER=
